<svg xmlns="http://www.w3.org/2000/svg" xmlns:xlink="http://www.w3.org/1999/xlink" width="80" zoomAndPan="magnify" viewBox="0 0 60 60" height="80" preserveAspectRatio="xMidYMid meet" version="1.2"><defs><clipPath id="41ca7cdfb4"><path d="M 0 43 L 15 43 L 15 58.800781 L 0 58.800781 Z M 0 43 "/></clipPath><clipPath id="78765fcdf5"><path d="M 43 43 L 59 43 L 59 58.800781 L 43 58.800781 Z M 43 43 "/></clipPath></defs><g id="dac16d51ce"><path style=" stroke:none;fill-rule:nonzero;fill:#ffffff;fill-opacity:1;" d="M 2.753906 41.027344 C 3.816406 41.027344 4.722656 41.683594 5.097656 42.609375 C 3.851562 42.953125 2.714844 43.5625 1.753906 44.375 C 1.566406 42.90625 1.898438 41.027344 2.753906 41.027344 Z M 2.753906 41.027344 "/><path style=" stroke:none;fill-rule:nonzero;fill:#ffffff;fill-opacity:1;" d="M 42.253906 53.3125 C 42.316406 53.542969 42.386719 53.769531 42.464844 53.992188 L 15.730469 53.992188 C 15.808594 53.769531 15.878906 53.542969 15.941406 53.3125 Z M 42.253906 53.3125 "/><path style=" stroke:none;fill-rule:nonzero;fill:#ffffff;fill-opacity:1;" d="M 49.523438 37.480469 C 49.523438 37.839844 49.59375 38.1875 49.730469 38.519531 C 49.867188 38.855469 50.066406 39.148438 50.320312 39.402344 C 50.574219 39.65625 50.867188 39.855469 51.203125 39.992188 C 51.535156 40.128906 51.882812 40.199219 52.242188 40.199219 C 52.605469 40.199219 52.953125 40.128906 53.285156 39.992188 C 53.617188 39.855469 53.914062 39.65625 54.167969 39.402344 C 54.421875 39.148438 54.617188 38.855469 54.757812 38.519531 C 54.894531 38.1875 54.964844 37.839844 54.964844 37.480469 C 54.964844 37.117188 54.894531 36.769531 54.757812 36.4375 C 54.617188 36.105469 54.421875 35.808594 54.167969 35.554688 C 53.914062 35.300781 53.617188 35.105469 53.285156 34.964844 C 52.953125 34.828125 52.605469 34.757812 52.242188 34.757812 C 51.882812 34.757812 51.535156 34.828125 51.203125 34.964844 C 50.867188 35.105469 50.574219 35.300781 50.320312 35.554688 C 50.066406 35.808594 49.867188 36.105469 49.730469 36.4375 C 49.59375 36.769531 49.523438 37.117188 49.523438 37.480469 Z M 49.523438 37.480469 "/><path style=" stroke:none;fill-rule:nonzero;fill:#ffffff;fill-opacity:1;" d="M 20.460938 42.835938 L 25.621094 40.410156 L 24.328125 37.664062 C 24.175781 37.34375 24.316406 36.953125 24.640625 36.800781 C 24.960938 36.652344 25.351562 36.789062 25.503906 37.113281 L 28.460938 43.398438 C 28.609375 43.722656 28.472656 44.109375 28.148438 44.261719 C 27.824219 44.414062 27.4375 44.273438 27.285156 43.949219 L 25.996094 41.207031 L 20.984375 43.5625 L 22.527344 46.597656 L 19.921875 47.25 L 15.960938 42.632812 L 17.570312 42.398438 Z M 20.460938 42.835938 "/><path style=" stroke:none;fill-rule:nonzero;fill:#ffffff;fill-opacity:1;" d="M 38.363281 33.902344 C 37.574219 32.683594 37.71875 30.03125 38.222656 29.382812 C 38.722656 28.738281 40.445312 29.671875 40.445312 29.671875 C 40.445312 29.671875 41.089844 34.40625 40.589844 35.984375 C 40.351562 36.726562 39.796875 39.582031 39.269531 42.410156 L 35.386719 43.382812 C 35.386719 42.597656 35.484375 41.886719 35.75 41.382812 C 36.828125 39.375 39.152344 35.125 38.363281 33.902344 Z M 38.363281 33.902344 "/><g clip-rule="nonzero" clip-path="url(#41ca7cdfb4)"><path style=" stroke:none;fill-rule:nonzero;fill:#ffffff;fill-opacity:1;" d="M 0.695312 48.035156 L 1.300781 46.988281 L 1.78125 47.265625 C 1.894531 47.101562 2.011719 46.941406 2.136719 46.789062 L 1.75 46.402344 L 2.605469 45.546875 L 2.980469 45.921875 C 3.132812 45.792969 3.292969 45.667969 3.453125 45.550781 L 3.191406 45.097656 L 4.238281 44.492188 L 4.496094 44.933594 C 4.675781 44.847656 4.863281 44.769531 5.050781 44.699219 L 4.921875 44.210938 L 6.089844 43.898438 L 6.21875 44.378906 C 6.417969 44.34375 6.617188 44.316406 6.820312 44.300781 L 6.820312 43.800781 L 8.03125 43.800781 L 8.03125 44.300781 C 8.234375 44.316406 8.433594 44.34375 8.632812 44.378906 L 8.761719 43.898438 L 9.929688 44.210938 L 9.800781 44.699219 C 9.988281 44.769531 10.175781 44.847656 10.355469 44.933594 L 10.613281 44.492188 L 11.660156 45.097656 L 11.398438 45.550781 C 11.558594 45.667969 11.71875 45.792969 11.867188 45.921875 L 12.246094 45.546875 L 13.101562 46.402344 L 12.714844 46.789062 C 12.839844 46.941406 12.957031 47.101562 13.070312 47.265625 L 13.550781 46.988281 L 14.152344 48.035156 L 13.65625 48.320312 C 13.738281 48.5 13.808594 48.683594 13.875 48.867188 L 14.4375 48.71875 L 14.75 49.886719 L 14.167969 50.042969 C 14.195312 50.230469 14.214844 50.421875 14.230469 50.617188 L 14.847656 50.617188 L 14.847656 51.824219 L 14.207031 51.824219 C 14.1875 52.015625 14.160156 52.203125 14.125 52.390625 L 14.75 52.558594 L 14.4375 53.726562 L 13.789062 53.550781 C 13.71875 53.726562 13.648438 53.898438 13.566406 54.066406 L 14.152344 54.40625 L 13.550781 55.457031 L 12.941406 55.105469 C 12.832031 55.253906 12.71875 55.398438 12.597656 55.539062 L 13.101562 56.039062 L 12.246094 56.894531 L 11.730469 56.382812 C 11.589844 56.496094 11.445312 56.605469 11.292969 56.710938 L 11.660156 57.34375 L 10.613281 57.949219 L 10.242188 57.308594 C 10.074219 57.382812 9.910156 57.453125 9.738281 57.511719 L 9.929688 58.230469 L 8.761719 58.546875 L 8.566406 57.820312 C 8.390625 57.851562 8.210938 57.875 8.03125 57.890625 L 8.03125 58.640625 L 6.820312 58.640625 L 6.820312 57.890625 C 6.640625 57.875 6.460938 57.851562 6.285156 57.820312 L 6.089844 58.546875 L 4.921875 58.230469 L 5.113281 57.511719 C 4.941406 57.453125 4.773438 57.382812 4.609375 57.308594 L 4.238281 57.949219 L 3.191406 57.34375 L 3.558594 56.710938 C 3.40625 56.605469 3.261719 56.496094 3.121094 56.382812 L 2.605469 56.894531 L 1.75 56.039062 L 2.253906 55.539062 C 2.132812 55.398438 2.019531 55.253906 1.910156 55.105469 L 1.300781 55.453125 L 0.695312 54.40625 L 1.285156 54.066406 C 1.203125 53.898438 1.128906 53.726562 1.0625 53.550781 L 0.414062 53.726562 L 0.101562 52.558594 L 0.726562 52.390625 C 0.691406 52.203125 0.664062 52.015625 0.644531 51.824219 L 0.00390625 51.824219 L 0.00390625 50.617188 L 0.621094 50.617188 C 0.636719 50.421875 0.65625 50.230469 0.683594 50.039062 L 0.101562 49.882812 L 0.414062 48.714844 L 0.976562 48.867188 C 1.042969 48.679688 1.113281 48.5 1.195312 48.320312 Z M 3.570312 51.09375 C 3.570312 53.222656 5.300781 54.949219 7.425781 54.949219 C 9.550781 54.949219 11.28125 53.222656 11.28125 51.09375 C 11.28125 48.96875 9.550781 47.238281 7.425781 47.238281 C 5.300781 47.238281 3.570312 48.96875 3.570312 51.09375 Z M 3.570312 51.09375 "/></g><path style=" stroke:none;fill-rule:nonzero;fill:#ffffff;fill-opacity:1;" d="M 5.988281 51.09375 C 5.988281 51.285156 6.023438 51.46875 6.097656 51.644531 C 6.171875 51.820312 6.273438 51.976562 6.410156 52.109375 C 6.542969 52.246094 6.699219 52.347656 6.875 52.421875 C 7.050781 52.496094 7.234375 52.53125 7.425781 52.53125 C 7.617188 52.53125 7.800781 52.496094 7.976562 52.421875 C 8.152344 52.347656 8.308594 52.246094 8.441406 52.109375 C 8.578125 51.976562 8.679688 51.820312 8.753906 51.644531 C 8.828125 51.46875 8.863281 51.285156 8.863281 51.09375 C 8.863281 50.902344 8.828125 50.722656 8.753906 50.542969 C 8.679688 50.367188 8.578125 50.214844 8.441406 50.078125 C 8.308594 49.945312 8.152344 49.839844 7.976562 49.765625 C 7.800781 49.695312 7.617188 49.65625 7.425781 49.65625 C 7.234375 49.65625 7.050781 49.695312 6.875 49.765625 C 6.699219 49.839844 6.542969 49.945312 6.410156 50.078125 C 6.273438 50.214844 6.171875 50.367188 6.097656 50.542969 C 6.023438 50.722656 5.988281 50.902344 5.988281 51.09375 Z M 5.988281 51.09375 "/><path style=" stroke:none;fill-rule:nonzero;fill:#ffffff;fill-opacity:1;" d="M 50.769531 42.296875 C 47.105469 42.296875 43.960938 44.546875 42.636719 47.734375 L 40.425781 44.195312 L 38.871094 44.585938 C 38.527344 46.453125 38.25 48.03125 38.15625 48.574219 L 38.011719 49.546875 L 37.59375 50.285156 L 37.414062 50.292969 L 42.007812 50.292969 C 41.984375 50.558594 41.96875 50.824219 41.96875 51.09375 C 41.96875 51.570312 42.011719 52.039062 42.082031 52.492188 L 16.109375 52.492188 C 16.183594 52.039062 16.222656 51.570312 16.222656 51.09375 C 16.222656 47.800781 14.40625 44.925781 11.71875 43.417969 L 13.417969 41.898438 L 13.558594 41.664062 L 19.117188 32.253906 C 20.617188 29.714844 23.121094 27.847656 25.984375 27.128906 L 41.339844 23.28125 C 43.183594 22.816406 45.078125 23.9375 45.566406 25.769531 L 46.265625 28.410156 L 46.773438 28.625 L 53.125 31.300781 C 54.433594 31.847656 55.484375 32.917969 56.015625 34.230469 L 59.90625 43.882812 C 60.007812 44.132812 59.933594 44.417969 59.726562 44.585938 L 57.957031 46.027344 C 56.363281 43.773438 53.734375 42.296875 50.769531 42.296875 Z M 48.105469 40.957031 L 47.71875 38.902344 L 41.523438 43.644531 L 42.449219 45.128906 Z M 30.066406 47.679688 C 30.113281 47.675781 30.164062 47.675781 30.210938 47.675781 L 32.078125 47.800781 C 33.25 47.933594 34.644531 48.136719 36.175781 48.246094 C 36.011719 47.636719 35.742188 46.5625 35.566406 45.410156 L 23.464844 48.4375 L 24.410156 50.292969 L 27.1875 50.292969 C 27.519531 49.535156 28.996094 47.722656 30.066406 47.679688 Z M 19.703125 48.121094 L 40.4375 42.933594 L 47.4375 37.578125 L 47.285156 36.996094 L 44.382812 26.085938 C 44.066406 24.890625 42.832031 24.164062 41.636719 24.464844 L 39.5 25 L 39.507812 26.535156 C 39.507812 26.816406 39.316406 27.0625 39.046875 27.132812 L 29.4375 29.5625 C 29.386719 29.574219 29.335938 29.582031 29.285156 29.582031 C 29.152344 29.582031 29.019531 29.535156 28.910156 29.453125 C 28.761719 29.335938 28.675781 29.160156 28.675781 28.96875 L 28.675781 27.714844 L 26.28125 28.3125 C 23.730469 28.953125 21.503906 30.617188 20.167969 32.878906 L 15.039062 41.558594 L 14.644531 42.226562 Z M 38.277344 25.304688 L 29.898438 27.40625 L 29.898438 28.183594 L 38.28125 26.0625 Z M 54.882812 34.6875 C 54.472656 33.675781 53.660156 32.851562 52.652344 32.425781 L 47.167969 30.117188 L 46.664062 29.902344 L 48.675781 37.46875 L 48.722656 37.65625 C 48.726562 37.667969 48.726562 37.675781 48.730469 37.6875 C 48.730469 37.691406 48.734375 37.695312 48.734375 37.703125 L 49.308594 40.746094 L 58.082031 42.628906 Z M 54.882812 34.6875 "/><g clip-rule="nonzero" clip-path="url(#78765fcdf5)"><path style=" stroke:none;fill-rule:nonzero;fill:#ffffff;fill-opacity:1;" d="M 44.40625 53.550781 L 43.757812 53.726562 L 43.445312 52.558594 L 44.070312 52.390625 C 44.035156 52.203125 44.007812 52.015625 43.984375 51.824219 L 43.347656 51.824219 L 43.347656 50.617188 L 43.964844 50.617188 C 43.976562 50.421875 44 50.230469 44.027344 50.042969 L 43.445312 49.886719 L 43.757812 48.714844 L 44.320312 48.867188 C 44.386719 48.683594 44.457031 48.5 44.539062 48.320312 L 44.039062 48.035156 L 44.644531 46.988281 L 45.125 47.265625 C 45.238281 47.101562 45.355469 46.941406 45.480469 46.789062 L 45.09375 46.402344 L 45.949219 45.546875 L 46.324219 45.921875 C 46.476562 45.792969 46.636719 45.667969 46.796875 45.550781 L 46.535156 45.097656 L 47.582031 44.492188 L 47.835938 44.933594 C 48.019531 44.847656 48.207031 44.769531 48.394531 44.699219 L 48.265625 44.210938 L 49.433594 43.898438 L 49.5625 44.378906 C 49.761719 44.34375 49.960938 44.316406 50.164062 44.300781 L 50.164062 43.800781 L 51.375 43.800781 L 51.375 44.300781 C 51.578125 44.316406 51.777344 44.34375 51.976562 44.378906 L 52.105469 43.898438 L 53.273438 44.210938 L 53.144531 44.699219 C 53.332031 44.769531 53.519531 44.847656 53.699219 44.933594 L 53.957031 44.492188 L 55.003906 45.097656 L 54.742188 45.550781 C 54.902344 45.667969 55.0625 45.792969 55.210938 45.921875 L 55.589844 45.546875 L 56.445312 46.402344 L 56.058594 46.789062 C 56.183594 46.941406 56.300781 47.101562 56.414062 47.265625 L 56.894531 46.988281 L 57.496094 48.035156 L 57 48.320312 C 57.082031 48.5 57.152344 48.683594 57.214844 48.867188 L 57.78125 48.71875 L 58.09375 49.886719 L 57.511719 50.042969 C 57.539062 50.230469 57.558594 50.421875 57.574219 50.617188 L 58.191406 50.617188 L 58.191406 51.824219 L 57.550781 51.824219 C 57.53125 52.015625 57.503906 52.203125 57.46875 52.390625 L 58.09375 52.558594 L 57.78125 53.726562 L 57.132812 53.550781 C 57.0625 53.726562 56.992188 53.898438 56.910156 54.066406 L 57.496094 54.40625 L 56.894531 55.457031 L 56.285156 55.105469 C 56.175781 55.253906 56.0625 55.398438 55.941406 55.539062 L 56.445312 56.039062 L 55.589844 56.894531 L 55.074219 56.382812 C 54.933594 56.496094 54.789062 56.605469 54.636719 56.710938 L 55.003906 57.34375 L 53.957031 57.949219 L 53.585938 57.308594 C 53.417969 57.382812 53.253906 57.453125 53.082031 57.511719 L 53.273438 58.230469 L 52.105469 58.546875 L 51.910156 57.820312 C 51.734375 57.851562 51.554688 57.875 51.375 57.890625 L 51.375 58.640625 L 50.164062 58.640625 L 50.164062 57.890625 C 49.984375 57.875 49.804688 57.851562 49.625 57.820312 L 49.433594 58.546875 L 48.265625 58.230469 L 48.457031 57.511719 C 48.285156 57.453125 48.117188 57.382812 47.953125 57.308594 L 47.582031 57.949219 L 46.535156 57.34375 L 46.902344 56.710938 C 46.75 56.605469 46.605469 56.496094 46.460938 56.382812 L 45.949219 56.894531 L 45.09375 56.039062 L 45.597656 55.535156 C 45.476562 55.398438 45.363281 55.253906 45.253906 55.105469 L 44.644531 55.453125 L 44.039062 54.40625 L 44.628906 54.066406 C 44.546875 53.898438 44.472656 53.726562 44.40625 53.550781 Z M 50.769531 54.953125 C 52.894531 54.953125 54.625 53.222656 54.625 51.09375 C 54.625 48.96875 52.894531 47.238281 50.769531 47.238281 C 48.644531 47.238281 46.914062 48.96875 46.914062 51.09375 C 46.914062 53.222656 48.644531 54.953125 50.769531 54.953125 Z M 50.769531 54.953125 "/></g><path style=" stroke:none;fill-rule:nonzero;fill:#ffffff;fill-opacity:1;" d="M 49.332031 51.09375 C 49.332031 51.285156 49.367188 51.46875 49.441406 51.644531 C 49.515625 51.820312 49.617188 51.976562 49.753906 52.109375 C 49.886719 52.246094 50.042969 52.347656 50.21875 52.421875 C 50.394531 52.496094 50.578125 52.53125 50.769531 52.53125 C 50.960938 52.53125 51.144531 52.496094 51.320312 52.421875 C 51.496094 52.347656 51.652344 52.246094 51.785156 52.109375 C 51.921875 51.976562 52.023438 51.820312 52.097656 51.644531 C 52.167969 51.46875 52.207031 51.285156 52.207031 51.09375 C 52.207031 50.902344 52.167969 50.722656 52.097656 50.542969 C 52.023438 50.367188 51.921875 50.214844 51.785156 50.078125 C 51.652344 49.945312 51.496094 49.839844 51.320312 49.765625 C 51.144531 49.695312 50.960938 49.65625 50.769531 49.65625 C 50.578125 49.65625 50.394531 49.695312 50.21875 49.765625 C 50.042969 49.839844 49.886719 49.945312 49.753906 50.078125 C 49.617188 50.214844 49.515625 50.367188 49.441406 50.542969 C 49.367188 50.722656 49.332031 50.902344 49.332031 51.09375 Z M 49.332031 51.09375 "/></g></svg>